<?xml version="1.0" standalone="no"?><!DOCTYPE svg PUBLIC "-//W3C//DTD SVG 1.1//EN" "http://www.w3.org/Graphics/SVG/1.1/DTD/svg11.dtd"><svg t="1598286779538" class="icon" viewBox="0 0 1024 1024" version="1.1" xmlns="http://www.w3.org/2000/svg" p-id="5170" xmlns:xlink="http://www.w3.org/1999/xlink" width="200" height="200"><defs><style type="text/css"></style></defs><path d="M318.917638 224.845296l482.659407 482.62528-265.474618 265.440491L53.477147 490.25166z" fill="#3FE699" p-id="5171"></path><path d="M511.906321 1023.999317a51.190632 51.190632 0 0 1-36.174713-15.015918L15.015919 548.26771a51.190632 51.190632 0 0 1 0-72.349427L475.731608 15.202594A50.849361 50.849361 0 0 1 516.342843 0.186675l424.199704 36.515984a51.190632 51.190632 0 0 1 46.754111 46.754111L1023.812642 507.656475a51.190632 51.190632 0 0 1-14.674648 40.611235l-460.715689 460.715689A51.190632 51.190632 0 0 1 511.906321 1023.999317zM123.540059 512.092996L511.906321 900.459259l407.818703-407.818703L887.30429 136.695027l-357.651883-30.714379z" fill="#2D515E" p-id="5172"></path><path d="M730.076655 294.12157m-48.504306 48.504306a68.595447 68.595447 0 1 0 97.008612-97.008612 68.595447 68.595447 0 1 0-97.008612 97.008612Z" fill="#2D515E" p-id="5173"></path></svg>