<?xml version="1.0" standalone="no"?><!DOCTYPE svg PUBLIC "-//W3C//DTD SVG 1.1//EN" "http://www.w3.org/Graphics/SVG/1.1/DTD/svg11.dtd"><svg t="1598286852008" class="icon" viewBox="0 0 1024 1024" version="1.1" xmlns="http://www.w3.org/2000/svg" p-id="6120" xmlns:xlink="http://www.w3.org/1999/xlink" width="200" height="200"><defs><style type="text/css"></style></defs><path d="M637.458 0.328c-11.774 0-21.33 9.556-21.33 21.33H573.5c0-11.774-9.556-21.33-21.33-21.33S530.84 9.884 530.84 21.658h-42.628c0-11.774-9.556-21.33-21.33-21.33s-21.298 9.556-21.298 21.33h-42.66c0-11.774-9.526-21.33-21.298-21.33-11.774 0-21.33 9.556-21.33 21.33l85.29 213.208h127.918l85.258-213.208C658.758 9.884 649.232 0.328 637.458 0.328z" fill="#8CC153" p-id="6121"></path><path d="M509.916 191.33c-449.994 0-562.764 832.342 3.84 832.342 566.608 0 446.154-832.342-3.84-832.342z" fill="#A0D468" p-id="6122"></path><path d="M530.84 384.082c0-11.774-9.526-21.298-21.298-21.298s-21.33 9.526-21.33 21.298c0 0.842 0.062 1.686 0.156 2.498v466.544c0 11.774 9.556 21.33 21.33 21.33s21.298-9.556 21.298-21.33V384.082h-0.156z" fill="#E6E9ED" p-id="6123"></path><path d="M616.128 213.536H402.922c-11.774 0-21.298-9.556-21.298-21.33a21.284 21.284 0 0 1 21.298-21.298h213.208c11.774 0 21.33 9.524 21.33 21.298-0.002 11.772-9.558 21.33-21.332 21.33z" fill="#434A54" p-id="6124"></path><path d="M603.48 679.892l-152.838-152.746c-19.894-19.862-25.766-36.07-22.798-43.286 4.154-9.994 26.452-14.49 46.72-14.49h141.722c11.774 0 21.33-9.556 21.33-21.33s-9.556-21.298-21.33-21.298h-141.722c-60.212 0-79.792 25.578-86.102 40.818-14.708 35.54 13.772 71.486 32.042 89.754l152.84 152.746c19.894 19.862 25.796 36.07 22.796 43.286-4.152 10.024-26.452 14.49-46.718 14.49h-146.344c-11.774 0-21.298 9.556-21.298 21.33s9.524 21.33 21.298 21.33h146.344c60.21 0 79.792-25.61 86.102-40.85 14.708-35.538-13.742-71.484-32.044-89.754z" fill="#F5F7FA" p-id="6125"></path></svg>